<svg width="100.06" height="91.92" xmlns="http://www.w3.org/2000/svg"><g><path d="M86.77 60.99H13.294a6.35 6.35 0 0 1 0-12.701h73.477a6.336 6.336 0 0 1 4.78 2.17 6.32 6.32 0 0 1 1.57 4.18 6.33 6.33 0 0 1-1.86 4.491 6.337 6.337 0 0 1-4.49 1.86z" fill="#884d00" fill-rule="evenodd"/><path d="M86.771 55.726H13.295a6.34 6.34 0 0 1-4.816-2.211 6.366 6.366 0 0 1-.966-1.506 6.362 6.362 0 0 1 5.354-3.705c.142-.01.285-.014.428-.014H86.77a6.357 6.357 0 0 1 5.782 3.719 6.394 6.394 0 0 1-1.291 1.857 6.337 6.337 0 0 1-4.491 1.86z" fill="#aa6100" fill-rule="evenodd"/><path d="M64.734 90.442H35.317c-18.69 0-33.842-7.953-33.842-24.318 0-.89.22-1.768.638-2.554a6.156 6.156 0 0 1 1.409-1.77 7.244 7.244 0 0 1 3.028-1.56 7.924 7.924 0 0 1 1.913-.233h83.125a7.696 7.696 0 0 1 3.714.935 6.487 6.487 0 0 1 2.637 2.628 5.44 5.44 0 0 1 .637 2.554 22.408 22.408 0 0 1-1.4 8.01 21.368 21.368 0 0 1-8.511 10.285 34.022 34.022 0 0 1-9.91 4.306c-4.272 1.148-9.02 1.717-14.021 1.717z" fill="#ffa733" fill-rule="evenodd"/><path d="M64.74 82.339H35.322c-16.444 0-30.147-6.155-33.205-18.779a6.156 6.156 0 0 1 1.41-1.77 7.243 7.243 0 0 1 3.028-1.56 7.924 7.924 0 0 1 1.912-.233h83.126a7.694 7.694 0 0 1 3.713.935 6.486 6.486 0 0 1 2.637 2.628 21.002 21.002 0 0 1-9.274 12.756 34.023 34.023 0 0 1-9.91 4.306c-3.671.986-7.694 1.545-11.927 1.683-.698.022-1.396.034-2.094.034z" fill="#ffb655" fill-rule="evenodd"/><path d="M77.043 45.623L60.616 62.051a8.94 8.94 0 0 1-12.643 0L31.545 45.623h45.498z" fill="#eebf00" fill-rule="evenodd"/><path d="M77.03 45.632L60.604 62.06a8.987 8.987 0 0 1-1.319 1.087 8.868 8.868 0 0 1-3.429-2.14L40.48 45.632h36.55z" fill="#ffd422" fill-rule="evenodd"/><path d="M89.338 53.33l-3.019-2.23c-2.106-1.557-4.792-.92-6.316 1.5l-.129.204a5.528 5.528 0 0 1-1.254 1.414c-1.292 1.015-2.91 1.23-4.365.513a4.517 4.517 0 0 1-.477-.273l-6.758-4.42a4.25 4.25 0 0 0-1.411-.6c-.979-.216-1.993-.052-2.906.484a4.722 4.722 0 0 0-.589.41l-5.416 4.407c-1.556 1.265-3.538 1.318-5.135.136l-6.179-4.58a4.37 4.37 0 0 0-1.389-.696c-1.036-.3-2.13-.166-3.111.396a4.697 4.697 0 0 0-.587.4l-5.625 4.466c-.42.337-.897.595-1.408.762-1.185.378-2.459.189-3.563-.578l-7.284-5.061c-1.314-.913-2.876-1.012-4.246-.29a4.536 4.536 0 0 0-.367.216l-6.795 4.444c-4.358.56-6.56-2.501-6.716-2.727a7.347 7.347 0 0 1-.967-3.682c0-.787.118-1.57.352-2.32a6.385 6.385 0 0 1 1.673-2.771 4.208 4.208 0 0 1 2.906-1.193h83.554a4.534 4.534 0 0 1 3.74 2.187c.362.546.644 1.141.838 1.767a7.757 7.757 0 0 1-.099 4.901 6.432 6.432 0 0 1-1.09 1.946c-1.533 1.848-3.912 2.309-5.862.867z" fill="#6dc82a" fill-rule="evenodd"/><path d="M89.348 48.724l-3.018-2.23c-2.107-1.556-4.793-.919-6.317 1.5l-.129.205c-1.352 2.15-3.635 2.903-5.618 1.927a4.517 4.517 0 0 1-.477-.273l-6.76-4.42a4.244 4.244 0 0 0-1.397-.598c-1.199-.269-2.454.034-3.508.892l-5.416 4.407a4.462 4.462 0 0 1-1.404.781c-1.056.352-2.185.25-3.204-.309-.183-.1-.359-.214-.527-.338l-6.178-4.58a4.365 4.365 0 0 0-1.39-.696c-1.036-.3-2.13-.166-3.11.396a4.704 4.704 0 0 0-.587.399l-5.626 4.469a4.446 4.446 0 0 1-1.42.764c-1.181.374-2.45.184-3.55-.58l-7.285-5.062c-1.433-.997-3.16-1.024-4.613-.073l-6.794 4.442c-4.525.584-6.726-2.74-6.726-2.74-.25-.438-.454-.901-.606-1.382a6.385 6.385 0 0 1 1.673-2.771 4.208 4.208 0 0 1 2.907-1.193H91.82a4.535 4.535 0 0 1 3.74 2.187 6.86 6.86 0 0 1 .838 1.767 4.59 4.59 0 0 1-.099.294 6.436 6.436 0 0 1-1.09 1.947c-1.371 1.654-3.421 2.197-5.235 1.26a4.645 4.645 0 0 1-.627-.392z" fill="#7ed63e" fill-rule="evenodd"/><path d="M34.894 48.235v11.29a2.098 2.098 0 0 1-.616 1.487 2.094 2.094 0 0 1-1.486.616 2.104 2.104 0 0 0-2.104 2.105v4.917a6.144 6.144 0 0 1-6.163 6.133h-.156a5.984 5.984 0 0 1-5.983-6.003l.027-8.9a2.472 2.472 0 0 1 .729-1.75 2.473 2.473 0 0 1 1.753-.724 2.482 2.482 0 0 0 2.48-2.481v-6.69a4.136 4.136 0 0 0-4.137-4.138h-7.742c-3.484 0-6.415-2.75-6.486-6.234l-.002-.13a6.368 6.368 0 0 1 6.368-6.366h77.187c3.486 0 6.422 2.75 6.49 6.234a6.452 6.452 0 0 1-.242 1.889 6.37 6.37 0 0 1-6.121 4.607c-1.264 0-2.527-.002-3.79-.006-12.456-.037-35.504-.213-41.641-.12a55.682 55.682 0 0 0-1.258.031 37.39 37.39 0 0 0-2.186.139c-3.599.35-4.726 1.26-4.897 3.429a8.488 8.488 0 0 0-.024.665z" fill="#ff3501" fill-rule="evenodd"/><path d="M41.996 43.639v.373a37.39 37.39 0 0 0-2.186.138c-3.599.35-4.726 1.26-4.897 3.429a8.488 8.488 0 0 0-.024.665v11.29a2.098 2.098 0 0 1-.616 1.488 2.094 2.094 0 0 1-1.486.615 2.104 2.104 0 0 0-2.104 2.105v4.917c0 .488-.058.975-.174 1.449a5.984 5.984 0 0 1-5.022-5.926l.028-8.899a2.468 2.468 0 0 1 .728-1.749 2.473 2.473 0 0 1 1.753-.724 2.482 2.482 0 0 0 2.481-2.482v-6.69a4.136 4.136 0 0 0-4.137-4.137h-7.742a6.446 6.446 0 0 1-6.488-6.37c0-.594.082-1.184.246-1.755h76.202a6.447 6.447 0 0 1 6.492 6.37c0 .593-.082 1.183-.244 1.753-11.42-.011-37.839-.225-44.456-.125a55.84 55.84 0 0 0-.942.02c-.762.023-1.523.066-2.283.13-3.718.333-4.902 1.218-5.098 3.368a8.23 8.23 0 0 0-.031.747z" fill="#ff5023" fill-rule="evenodd"/><path d="M58.633 24.897L44.55 38.987a12.45 12.45 0 0 1-4.848 3.01c-4.37 1.477-9.393.472-12.87-3.01L12.74 24.897h45.893z" fill="#eebf00" fill-rule="evenodd"/><path d="M58.636 24.897l-14.084 14.09a12.45 12.45 0 0 1-4.848 3.01 12.402 12.402 0 0 1-4.845-3.01l-14.09-14.09h37.867z" fill="#ffd422" fill-rule="evenodd"/><path d="M93.332 32.125H6.721a5.246 5.246 0 0 1-5.245-5.245 17.756 17.756 0 0 1 1.249-6.677 19.601 19.601 0 0 1 6.065-7.899 35.458 35.458 0 0 1 8.506-4.933 55.234 55.234 0 0 1 4.382-1.629 69.01 69.01 0 0 1 4.067-1.182C37.877 1.42 50.01 1.483 50.026 1.483h.015c.952-.003 48.343-.006 48.536 25.242v.155a5.224 5.224 0 0 1-1.536 3.71 5.226 5.226 0 0 1-3.709 1.535z" fill="#ffa733" fill-rule="evenodd"/><path d="M98.57 27.18H17.385a5.246 5.246 0 0 1-5.245-5.245 17.756 17.756 0 0 1 1.249-6.677 19.601 19.601 0 0 1 6.065-7.899 28.282 28.282 0 0 1 2.228-1.626c1.344-.436 2.7-.83 4.068-1.183C37.643 1.47 49.537 1.47 50.015 1.473a6.137 6.137 0 0 1 .03 0c.951-.003 48.342-.006 48.535 25.242v.155c0 .104-.003.207-.01.31z" fill="#ffb655" fill-rule="evenodd"/><g><path d="M76.037 13.791a2.22 2.22 0 0 0 .089-3.138 3.173 3.173 0 0 0-.2-.192c-.907-.803-3.043-2.002-4.125-1.776a.814.814 0 0 0-.402.198.821.821 0 0 0-.224.404c-.297 1.164.986 3.634 1.724 4.415a2.22 2.22 0 0 0 3.138.089zM64.481 22.12a2.226 2.226 0 0 0-.13-.497c-.443-1.147-2.552-3.87-3.695-3.432a.703.703 0 0 0-.137.071c-.88.585-.77 3.21-.436 4.542.034.141.076.28.127.415a2.22 2.22 0 0 0 4.271-1.098zM52.252 12.496a2.22 2.22 0 0 1-4.439 0c0-1.185.928-4.312 2.096-4.523a.696.696 0 0 1 .123-.011c1.226 0 2.22 3.308 2.22 4.534zM37.888 24.686a2.22 2.22 0 0 0 2.147-1.665c.307-1.187.172-4.638-1.015-4.944a.71.71 0 0 0-.178-.022c-1.18 0-2.813 2.727-3.105 3.856a2.258 2.258 0 0 0-.07.557 2.22 2.22 0 0 0 2.22 2.218zM24.864 14.386l.024.012a2.22 2.22 0 0 0 2.954-1.068c.53-1.13 1.061-4.49-.033-5.021-1.104-.535-3.44 2.01-3.974 3.112a2.22 2.22 0 0 0 1.03 2.965z" fill="#fff5cc" fill-rule="evenodd"/></g><path d="M64.736 88.947H35.322c-8.479 0-15.913-1.658-21.503-4.797a1.482 1.482 0 0 0-2.193 1.103 1.483 1.483 0 0 0 .744 1.48c5.405 3.034 12.344 4.787 20.194 5.118.919.038 1.838.057 2.758.057h29.414c1.227 0 2.454-.035 3.679-.107 13.757-.808 27.515-6.28 30.9-19.53a1.507 1.507 0 0 0 .046-.366 1.483 1.483 0 0 0-2.917-.367A20.347 20.347 0 0 1 85.82 84.4c-3.054 1.657-6.664 2.888-10.745 3.649a56.563 56.563 0 0 1-10.339.898zM8.469 61.49h8.456l-.021 7.292v.023a7.46 7.46 0 0 0 7.463 7.467h.156c4.215 0 7.643-3.415 7.643-7.614v-4.917c0-.346.28-.624.624-.624.905 0 1.776-.342 2.437-.96.213-.198.402-.422.562-.666h9.244l.037.028c.868.695 3.239 4.284 8.207 4.615.247.017.495.025.744.025.725.002 1.448-.07 2.158-.217 4.045-.839 6.054-3.857 6.816-4.44l.015-.012h28.584a6.178 6.178 0 0 1 3.271.914 4.46 4.46 0 0 1 2.236 3.678c.009.81.668 1.463 1.479 1.463h.017a1.481 1.481 0 0 0 1.465-1.496 7.612 7.612 0 0 0-4.76-6.744 9.06 9.06 0 0 0-1.847-.587 7.774 7.774 0 0 0 1.141-3.811A7.625 7.625 0 0 0 98.1 49.36c.434-2.81-.382-5.886-2.582-7.752a7.82 7.82 0 0 0 1.017-3.856 7.677 7.677 0 0 0-1.374-4.391 6.74 6.74 0 0 0 4.901-6.475A20.884 20.884 0 0 0 88.323 8.495C82.94 5.34 76.28 3.289 69.621 1.99a102.34 102.34 0 0 0-5.823-.957 1.481 1.481 0 1 0-.399 2.933c8.396 1.14 17.984 3.445 24.781 7.929a17.586 17.586 0 0 1 8.921 14.991 3.77 3.77 0 0 1-3.764 3.765H6.726a3.77 3.77 0 0 1-3.765-3.765c0-5.426 2.62-10.518 7.033-13.674 3.696-2.905 8.84-5.252 15.416-7.025 6.055-1.633 13.225-2.64 19.37-3.031a88.125 88.125 0 0 1 5.55-.186c.839.007 3.556.053 7.242.36A1.48 1.48 0 0 0 57.819.38a114.598 114.598 0 0 0-4.2-.274 88.833 88.833 0 0 0-3.645-.097 96.928 96.928 0 0 0-7.415.296C30.54 1.232 16.178 4.434 7.863 11.16a22.372 22.372 0 0 0-5.153 5.783A18.868 18.868 0 0 0 0 26.886a6.74 6.74 0 0 0 4.868 6.465 7.802 7.802 0 0 0-1.338 4.627 7.693 7.693 0 0 0 1.028 3.606 7.852 7.852 0 0 0-2.43 4.059 9.31 9.31 0 0 0-.258 3.032 8.786 8.786 0 0 0 1.128 3.687c.319.518 1.019 1.274 1.893 1.914.185.136.376.264.571.384a7.793 7.793 0 0 0 1.144 4.057 8.612 8.612 0 0 0-4.987 2.948A7.047 7.047 0 0 0 0 66.127a23.624 23.624 0 0 0 1.804 9.334 21.975 21.975 0 0 0 5.492 7.653 1.475 1.475 0 0 0 .997.386c1.214 0 1.861-1.354 1.245-2.287-.07-.104-.151-.2-.244-.285a19.178 19.178 0 0 1-6.33-14.382l-.003-.419a4.49 4.49 0 0 1 2.417-3.836 6.22 6.22 0 0 1 3.09-.8zm47.337-7.926a.287.287 0 0 1 .006-.005l.008-.007a1.988 1.988 0 0 0 .028-.022l5.33-4.336c1.99-1.618 4.537-1.764 6.649-.383 6.332 4.142 7.259 4.94 8.254 4.886.157-.01.312-.035.465-.071 1.409-.307 2.15-1.745 2.2-1.804 1.99-3.146 5.545-3.894 8.266-2.036.178.123.054.037 3.187 2.35l.017.013c.097.072.2.14.304.2 1.752 1.012 3.622-.22 4.376-2.324a6.228 6.228 0 0 0-.117-4.492 4.569 4.569 0 0 0-1.18-1.673 7.788 7.788 0 0 1-4.911 1.725c-1.747 0-3.495-.001-5.242-.004-46.29-.078-47.073-1.12-47.073 2.661v3.386l1.664-1.32c.17-.145.34-.288.512-.43 1.368-1.126 2.583-1.917 4.394-1.904 2.403.017 3.33 1.147 9.5 5.72.136.102.28.192.431.27.946.485 1.997.361 2.888-.364l.03-.025a1.26 1.26 0 0 1 .007-.005M29.205 63.74v4.918c0 4.221-5.202 6.16-8.028 3.328a4.549 4.549 0 0 1-.318-.354c-1.189-1.475-.995-3.14-.995-2.93v.002l.02-6.445.008-2.367c.003-.551.45-.996 1-.997a3.967 3.967 0 0 0 3.963-3.962v-6.69c0-1.676-.75-3.265-2.044-4.33a5.623 5.623 0 0 0-1.204-.76 5.591 5.591 0 0 0-.598-.244c-1.586-.535-3.163-.157-9.515-.284a5.055 5.055 0 0 1-2.477-.62c-2.568-1.425-3.398-4.994-1.47-7.33a5.088 5.088 0 0 1 1.217-1.063h10.591l6.43 6.43a13.901 13.901 0 0 0 9.238 4.089 4.064 4.064 0 0 0-1.518 2.866c-.2 1.463-.05 3.397-.08 6.147-.002.268-.007.536-.013.804v5.584a.623.623 0 0 1-.622.624 3.59 3.59 0 0 0-3.585 3.585zm22.82-30.129h39.2c.482.293.915.662 1.28 1.093 2.495 2.973.386 7.816-3.817 7.816H85.02c-24.776-.006-2.612-.073-37.94-.009l-4.827.009c.531-.28 1.043-.595 1.531-.944 1.974-1.415 3.488-3.374 8.24-7.965zm-7.523 17.883l6.179 4.58a5.748 5.748 0 0 0 2.318 1.04c1.576.311 3.24-.085 4.63-1.216l5.417-4.406c.983-.8 2.136-.875 3.162-.204l1.81 1.183c-10.21 9.994-8.96 8.787-9.242 9.02a7.456 7.456 0 0 1-10.03-.475l-.895-.894-7.707-7.708c.525-.261 2.19-2.511 4.344-.93l.014.01zm45.204 7.035H65.971l4.471-4.471 1.846 1.206a.34.34 0 0 1 .017.008c.378.198 2.185 1.837 4.87 1.247a5.504 5.504 0 0 0 1.174-.4c1.706-.803 2.633-2.279 2.854-2.64.016-.028.033-.054.05-.08.908-1.44 2.402-2.089 3.795-1.346.136.073.266.156.39.248l.11.073c2.212 1.484 3.394 2.968 5.53 3.252.15.02.302.033.454.04a4.868 4.868 0 0 1-1.826 2.863zM27.88 37.95l-4.337-4.338H47.84l-4.335 4.337a11.016 11.016 0 0 1-5.427 2.98 11.032 11.032 0 0 1-10.2-2.98zm-16.384 7.637h7.742a2.66 2.66 0 0 1 2.65 2.485 5.434 5.434 0 0 0-1.833-.32c-2.23 0-3.143.983-9.558 5.178-.17.014-.339.02-.509.02-1.738 0-3.206-.73-4.137-1.737a4.686 4.686 0 0 1-.317-.382 5.767 5.767 0 0 1-.696-2.236 6.266 6.266 0 0 1 .542-3.264c.26-.574.64-1.086 1.114-1.501a8.018 8.018 0 0 0 5.002 1.757zm5.68 12.943h-6.818a4.875 4.875 0 0 1-1.794-2.722c.102.016.204.03.306.04.878.102 2.354.143 2.95-.245l6.794-4.442c.128-.084.262-.159.401-.223 1.418-.652 2.543.26 2.823.462a.344.344 0 0 0 .057.036v3.498a1 1 0 0 1-1.001 1 3.97 3.97 0 0 0-3.717 2.596zm19.198 0v-3.12l1.437-1.142 4.262 4.262h-5.699zm19.433-4.965l-.003.002m-.003.003a.188.188 0 0 1 .003-.003" fill-rule="evenodd"/><path d="M70.382 7.813a2.312 2.312 0 0 0-.705 1.42c-.095.71.052 1.572.44 2.58.337.946.825 1.83 1.445 2.62a3.73 3.73 0 0 0 2.953 1.451c.78.006 1.542-.24 2.171-.701 1.468-1.08 2.03-3.204 1.014-4.887a3.839 3.839 0 0 0-.73-.876c-.873-.779-3.055-2.24-4.876-2.24a2.404 2.404 0 0 0-1.712.633zm4.03 5.103a.743.743 0 0 0 .099.007.743.743 0 0 0 .678-1.04.75.75 0 0 0-.14-.207 1.984 1.984 0 0 0-.082-.082c-.486-.457-1.52-1.04-2.247-1.307.214.702.695 1.696 1.11 2.233a2.289 2.289 0 0 0 .146.173.731.731 0 0 0 .436.223zM58.835 23.75a3.676 3.676 0 0 0 1.95 2.055c2.985 1.328 6.144-1.621 4.958-4.707-.425-1.11-2.906-5.03-5.386-4.361a2.28 2.28 0 0 0-.224.073 2.623 2.623 0 0 0-1.517 1.804c-.564 1.82-.083 4.35.22 5.137zm2.752-3.535a5.854 5.854 0 0 0-.233-.226 5.558 5.558 0 0 0-.017.234c-.043.812.053 1.921.262 2.467a.74.74 0 0 0 1.38-.53 2.274 2.274 0 0 0-.09-.2c-.26-.523-.81-1.239-1.302-1.745zM46.327 12.5a3.704 3.704 0 0 0 3.7 3.7 3.704 3.704 0 0 0 3.674-4.129c-.17-1.647-1.195-5.585-3.674-5.585-2.6 0-3.6 4.33-3.693 5.809a3.344 3.344 0 0 0-.007.205zm3.7.74a.74.74 0 0 1-.739-.74c.001-.11.01-.222.025-.331.087-.66.39-1.61.693-2.235l.021-.043.02.041c.32.656.638 1.674.706 2.335.008.078.013.155.013.233a.74.74 0 0 1-.739.74zM34.478 23.889c.066.156.143.308.23.455.27.465.639.866 1.08 1.174 1.736 1.2 4.283.672 5.34-1.242.153-.28.27-.577.35-.886.223-.868.424-3.715-.523-5.447a2.481 2.481 0 0 0-1.556-1.302c-1.003-.258-2.018.175-3.024 1.29a8.602 8.602 0 0 0-.504.615c-1.242 1.663-2.16 3.535-1.393 5.343zm4.128-1.229l-.001.004c-.017.056-.07.25-.274.397a.782.782 0 0 1-.203.106.742.742 0 0 1-.949-.887c.028-.104.062-.205.103-.305.253-.632.807-1.508 1.265-2.036.029.136.053.274.072.412.11.78.127 1.775-.009 2.299a.064.064 0 0 0-.004.01zm.001-.003l.002-.004M22.506 10.759c-.119.245-.211.503-.274.768-.516 2.169 1.051 4.384 3.345 4.536a3.706 3.706 0 0 0 3.68-2.285c.465-1.12 1.01-3.64.42-5.349a2.428 2.428 0 0 0-1.219-1.47c-2.102-1.018-4.773 1.83-5.733 3.405a4.74 4.74 0 0 0-.219.395zm3.008 2.278a.74.74 0 0 0 .987-.343c.035-.073.066-.147.093-.223.225-.624.38-1.67.38-2.397v-.05c-.076.058-.15.12-.224.182-.515.442-1.104 1.08-1.426 1.578a2.509 2.509 0 0 0-.153.265.736.736 0 0 0 .343.988z" fill-rule="evenodd"/></g></svg>