<svg width="212.05" height="146.19" xmlns="http://www.w3.org/2000/svg"><g><path d="M151.678 42.826c0-.26.023-.514.067-.76.19-.553-.068-1.513-.253-1.87a26.51 26.51 0 0 0-2.566-3.835 2.21 2.21 0 0 0-.241-.235c-.563-.467-1.21-.527-1.497-.587a4.338 4.338 0 0 1-3.225-3.057c-.09-.538-.677-1.4-.97-1.626a31.89 31.89 0 0 0-2.911-1.804 33.88 33.88 0 0 0-1.45-.75.772.772 0 0 0-.143-.049c-.478-.12-1.58-.13-2-.065a1.072 1.072 0 0 0-.07.013 4.327 4.327 0 0 1-4.39-1.583c-.21-.271-.685-.95-1.476-1.175a1.932 1.932 0 0 0-.187-.044 50.185 50.185 0 0 0-5.162-.956 2.73 2.73 0 0 0-1.9.568 4.303 4.303 0 0 1-2.088.538 4.305 4.305 0 0 1-2.831-1.055c-.2-.174-.84-.612-1.476-.581h-.144a63.58 63.58 0 0 0-4.531.157c-.48.034-.96.074-1.44.121a1.726 1.726 0 0 0-.76.264 3.277 3.277 0 0 0-.723.627 4.324 4.324 0 0 1-5.083 1.06 4.34 4.34 0 0 1-.375-.199 1 1 0 0 0-.338-.175c-.354-.112-.788-.094-1.049-.047a1.32 1.32 0 0 0-.12.026c-1.279.356-2.54.772-3.78 1.25-.395.151-.787.31-1.176.476-.232.114-.428.29-.568.508a2.66 2.66 0 0 0-.306.614A4.33 4.33 0 0 1 91.7 31.46c-.73-.144-1.469.132-1.727.336a26.84 26.84 0 0 0-2.983 2.732c-.344.367-.676.744-.996 1.131-.131.14-.23.306-.29.488-.133.395-.11.827-.104 1.088v.075a4.317 4.317 0 0 1-1.27 3.064 4.35 4.35 0 0 1-1.004.748 4.58 4.58 0 0 0-.038.024c-.413.262-.827.619-1.063 1.091-.114.33-.21.668-.287 1.01-.366 1.622-.305 3.245-.289 4.823.39.183.792.337 1.204.46 4.82 1.417 8.106-2.75 11.176-3.05.113-.011.226-.017.34-.017 1.363.05 2.673.54 3.735 1.396 1.478 1.066 2.757 2.463 4.156 3.131a3.651 3.651 0 0 0 1.588.39 2.99 2.99 0 0 0 .915-.178c2.652-.883 7.362-4.74 9.308-4.74a5.22 5.22 0 0 1 2.605.788c2.966 1.696 5.785 5.551 10.725 5.638l.169.001c3.092 0 8.093-3.274 11.73-3.274.922.003 1.84.109 2.738.316 4.398.988 7.484 3.803 12.346 1.14v-.12a13.88 13.88 0 0 0-.247-2.449c-.128-.637-.818-1.26-1.092-1.517a4.323 4.323 0 0 1-1.367-3.16z" fill="none"/><path d="M101.722 28.907s-7.881 1.94-12.791 6.669a5.765 5.765 0 0 0-.049.051c-.51.548-4.853 5.336-4.217 9.027.583 3.382 2.691-.122 8.095-.393.219-.011.438-.017.657-.017.644-.002 1.288.052 1.923.162 4.507.793 5.996 4.235 8.625 4.235 2.667 0 6.304-4.392 10.366-4.392 4.74 0 7.734 4.517 11.906 5.789a7.345 7.345 0 0 0 2.158.329c3.455 0 6.524-3.03 10.537-3.03 3.686 0 14.386 5.349 12.75.499-.839-2.485-4.607-6.195-19.807-8.024a114.4 114.4 0 0 0-1.54-.175s-14.763-10.9-26.244-10.9a15.95 15.95 0 0 0-2.37.17z" fill="none"/><path d="M85.705 56.62l11.458 2.182 9.154-1.576 21.763-.122 9.699 2.243.144-.021c1.43-.216 13.007-1.964 13.251-1.92l.002.001a.099.099 0 0 0 .02.004c.297.034 2.947-.318 3.28-.363l.035-.004s-1.759-.667-.122-1.576c1.637-.91.667-1.759.667-1.759l-20.248-.181-9.093 1.697-6.365-2.243-10.669-.909-7.154.303-11.882-.06-5.334 3.03.018.003c.212.035 2.186.389 1.444 1.202a1.23 1.23 0 0 1-.068.068z" fill="#3d5107" fill-rule="evenodd"/><g><path d="M47.99 84.495a1.5 1.5 0 0 0 .081.002c2.872-.667 10.258.836 12.463 6.346a9.107 9.107 0 0 1 .631 3.414c0 16.49-28.068 35.039-36.676 35.039-.563 0-1.126-.043-1.683-.131-6.092-.974-9.455-7.247-4.864-14.66.245-.395.507-.778.785-1.15 3.936-5.281 12.758-11.185 24.727-16.918a198.228 198.228 0 0 1 8.17-3.68c-.686-2.041-2.917-3.466-6.827-3.466-.382 0-.764.019-1.145.054-6.374.579-13.933 5.664-15.033 6.383l-.068.044s-1.82-.767-2.049-3.108c-.231.28-.46.56-.687.843-2.906 3.616-9.608 12.66-10.6 20.27a2.1 2.1 0 0 1-.266.389 1.16 1.16 0 0 1-.341.278s-4.517-2.553-5.717-7.817a11.708 11.708 0 0 1-.29-2.61 9.14 9.14 0 0 1 .329-2.26c.572-2.207 1.864-4.928 3.663-7.93a84.586 84.586 0 0 1 3.842-5.8c-2.186-3.843-.129-7.486.193-8.012l.04-.064c3.24 1.312 4.895.931 5.63.549 8.48-10.146 18.95-19.952 25.441-22.884a8.4 8.4 0 0 1 3.302-.884c2.91 0 5.032 4.244 5.213 5.76a122.486 122.486 0 0 0-12.028 8.812c-3.9 3.226-7.345 6.453-9.936 9.219a50.991 50.991 0 0 0-2.626 3.007c.07.002.14.004.21.004 6.825 0 23.627-10.538 32.564-20.133a43.064 43.064 0 0 0 1.67-1.897c5.197-6.282 6.37-11.85-1.576-12.855a22.603 22.603 0 0 0-2.821-.16 37.118 37.118 0 0 0-5.192.413c-18.84 2.7-52.75 18.281-52.75 36.872 0 .606.037 1.212.109 1.815a.624.624 0 0 1-.015-.006c-.255-.095-3.865-1.548-3.865-7.814.004-.865.09-1.728.257-2.576 2.982-15.554 31.46-38.404 59.394-38.404 9.816 0 15.199 4.105 17.675 10.329a28.28 28.28 0 0 1 1.724 10.403 12.277 12.277 0 0 1-1.758 6.203c-3.96 6.853-13.984 12.171-23.563 16.139a183.531 183.531 0 0 1-5.786 2.276c-.061.043-.449.329.048.356zm-21.328 31.71c.162.042.328.062.494.058.146-.008.29-.037.427-.085 2.788-.863 14.265-8.193 20.459-14.897a29.624 29.624 0 0 0 1.508-1.758c-.698.259-1.386.545-2.063.857-8.888 4.058-23.9 14.942-20.825 15.826z" fill="#fff" fill-rule="evenodd"/><path d="M137.76 107.908c-3.524.01-7.045.21-10.548.598 6.351-10.779 12.083-21.041 17.294-25.721.808-.75 1.71-1.393 2.681-1.913a5.081 5.081 0 0 0-.155-.87c-.851-3.08-4.33-2.101-4.33-2.101a1.815 1.815 0 0 1-.057.007c-.731.081-.576-.42-.553-.485l.002-.006a7.197 7.197 0 0 0-.064-.93c-.268-2.038-1.388-4.883-3.8-5.965a5.164 5.164 0 0 0-2.137-.44 9.74 9.74 0 0 0-3.38.69c-5.191 1.947-11.465 7.754-16.183 14.187a145.274 145.274 0 0 0-1.593 1.914c-.17.207-.34.412-.513.617-2.42 2.876-9.704 11.136-12.022 10.42a.361.361 0 0 1-.243-.266c-.23-.755.648-2.94 2.503-5.285a51.1 51.1 0 0 1 2.048-2.405c3.285-3.66 7.318-7.556 8.743-11.052.33-.762.51-1.58.53-2.41a3.873 3.873 0 0 0-.78-2.415c-2.91-3.85-12.922-2.965-12.208-9.513-.285-.567-.942-.284-1.023-.246a1.152 1.152 0 0 0-.168.142c-.555.553-1.936 2.532-1.842 6.236a14.405 14.405 0 0 0 .005.157c.15 3.906 2.261 5.553 2.466 5.703l.016.011a13.474 13.474 0 0 1-.421 1.668c-1.054 3.242-3.004 4.456-4.312 4.91-.188.066-.378.12-.572.165 1.342-1.815 2.213-3.345 2.213-4.439 0-3.523-3.485-5.86-6.57-4.413a4.909 4.909 0 0 0-.22.11c-1.113 3.948-15.975 23.552-20.353 24.344a1.451 1.451 0 0 1-.258.025c-1.212 0-.636-1.734 1.157-4.17.32-.433.652-.857.995-1.27a72.209 72.209 0 0 1 1.776-2.049c2.565-2.872 5.679-6.171 7.386-9.377.07-.131.138-.263.204-.396.29-.585.529-1.195.712-1.822 1.097-3.764-.014-7.529-3.137-7.529a6.776 6.776 0 0 0-2.043.352c-5.951 1.898-13.65 10.894-14.319 12.825a.712.712 0 0 0-.046.22.607.607 0 0 0 .263.48c.365.287.979.37.979.37.486-.486 6.955-6.033 8.543-6.033 1.332 0 .58 1.927-1.348 4.54-.357.482-.726.954-1.107 1.416a87.171 87.171 0 0 1-2.171 2.519c-2.565 2.886-5.584 6.127-7.735 9.368-.205.308-.404.62-.596.935-3.246 5.327-3.51 10.654 1.03 10.654a6.098 6.098 0 0 0 1.746-.282c4.673-1.405 10.307-7.637 11.455-8.948a26.171 26.171 0 0 0 .237-.272c.3-.32.322.046.323.099v.006a3.125 3.125 0 0 0-.297.624c-.826 2.264-.918 7.763 3.575 8.408.3.042.602.063.905.062.221 0 .442-.014.66-.041 1.533-.196 2.243-1.029 2.306-1.106a.346.346 0 0 0 .004-.005c-3.045-6 5.394-15.072 11.127-21.94.241-.288.481-.578.72-.87a4.09 4.09 0 0 0 .672.062l.092.001c3.69 0 8.255-5.324 9.136-6.273l.016-.017c.146-.15.319-.272.51-.358 1.063-.505 2.825-.347 2.825.176 0 1.364-4.664 5.116-9.327 9.946a49.502 49.502 0 0 0-6.526 8.073c-.302.49-.586.991-.85 1.503-2.587 5.021-2.705 10.043 1.032 10.663.27.044.544.066.819.064 6.811 0 15.489-11.93 16.94-13.995l.051-.074c-.322.88-.597 1.777-.823 2.686-.93 3.773-.695 6.868.583 8.442a2.972 2.972 0 0 0 2.408 1.125c4.907 0 12.485-9.46 12.91-9.944.383-.438.594-.738.787-.738.02 0 .04.003.06.01.028.01.055.022.08.038.313.2-.089.744-.136.805a127.628 127.628 0 0 1-7.657 11.831c-23.591 4.342-46.187 15.853-46.187 28.105.001.32.037.638.106.95.803 3.703 6.045 7.405 10.147 7.405 7.821 0 16.679-4.596 24.573-11.59a75.865 75.865 0 0 0 13.437-15.78c.468-.735.93-1.472 1.39-2.21a65.848 65.848 0 0 1 5.186-.21c11.155 0 21.528 2.998 26.64 10.21a17.399 17.399 0 0 1 2.43 4.944c.052.574.105.56.118.546a.021.021 0 0 0 .003-.004c7.608-2.365 16.246-24.189-18.945-24.189zm-26.643 10.913c-13.003 12.309-27.279 17.731-27.279 14.852 0-3.6 11.783-11.196 26.006-14.944.608-.16 1.218-.31 1.83-.454l-.168.165-.017.018c-.123.122-.247.243-.372.363zm7.961-22.269a.872.872 0 0 0 .496.13c.06-.001.121-.008.181-.02 2.948-.562 14.153-13.796 18.87-17.533-.04-1.462-.878-1.79-1.447-1.852a2.206 2.206 0 0 0-.236-.013c-2.04 0-4.841 1.622-7.614 3.958a42.101 42.101 0 0 0-4.389 4.318c-4.213 4.782-7.184 10.122-5.86 11.012z" fill="#fff" fill-rule="evenodd"/><path d="M196.696 78.189l-.037.079c-.218.318-.49.847-.83 1.675-3.137 7.638-16.413 18.55-17.534 17.898-1.242-.721 1.067-4.018 4.577-7.85a68.624 68.624 0 0 1 2.121-2.195c3.228-3.223 6.457-6.186 6.457-9.111 0-6.563-13.238-6.102-10.525-14.166.1-.294.213-.584.34-.868.558-1.256-.769-1.988-.899-2.056a.578.578 0 0 0-.01-.005c-2.18 1.137-4.693 3.432-5.687 6.95a11.852 11.852 0 0 0-.436 3.234c-.002.518.035 1.035.112 1.547.196 1.264.638 2.21 1.23 2.93.028.035.057.07.087.103-.14.4-.319.786-.536 1.15-2.592 4.629-13.3 17.897-21.006 20.801-.872.352-1.8.543-2.741.567a3.063 3.063 0 0 1-.894-.122c-2.544-.773-1.379-5.008-1.115-5.78l.016-.047c.38-1.053 1.038-.773 1.133-.726a1.666 1.666 0 0 0 .4.215c.407.155.834.155 1.127.155a6.494 6.494 0 0 0 1.671-.265c4.4-1.206 11.956-6.35 15-11.495.182-.307.352-.621.51-.942 2.044-4.141 1.447-8.283-3.188-8.45a8.174 8.174 0 0 0-.293-.004 12.952 12.952 0 0 0-4.032.696c-7.74 2.545-16.048 11.63-19.67 20.036-2.94 6.82-2.627 13.38 2.684 14.637a8.61 8.61 0 0 0 1.983.215 14.118 14.118 0 0 0 4.428-.765c12.508-4.136 25.596-23.774 28.563-27.795l.004-.005c.332.07.665.131 1 .186 1.866.309 3.409.421 3.409 1.463 0 2.784-9.697 8.987-14.965 15.864-.319.416-.625.842-.918 1.277a16.6 16.6 0 0 0-.726 1.183c-2.687 4.828-2.075 9.683 3.15 9.683a6.518 6.518 0 0 0 2.285-.495c6.753-2.591 17.667-14.585 20.53-17.96-.554 2.575-1.239 5.32-2.445 8.331-2.839 7.08-7.289 13.498-11.499 13.58h-.08c-1.576 0-2.243-.667-2.728-1.758 0 0-.272-.28-.667-.182a.838.838 0 0 0-.125.157c-.901 1.394-2.563 9.129 6.41 9.326.118.002.235.004.353.004a13.759 13.759 0 0 0 9.971-4.781c2.39-2.538 4.31-5.91 5.579-9.677 2.181-6.484 1.858-14.007 3.637-19.642a18.52 18.52 0 0 1 3.714-6.716c1.308-1.458 2.826-2.541 4.462-3.041a6.855 6.855 0 0 1 2.008-.305 2.704 2.704 0 0 0-.012-.104c-.091-.714-.805-4.867-5.02-4.867-4.558 0-7.985 3.24-10.333 8.233zm-31.954-.853a1.465 1.465 0 0 0-.39-.045 2.661 2.661 0 0 0-.569.068c-3.86.851-12.276 9.391-10.416 10.126a.862.862 0 0 0 .316.05c2.927 0 13.707-9.46 11.059-10.199z" fill="#fff" fill-rule="evenodd"/></g><path d="M195.153 44.128c3.88-2.364 12.61-6.486 12.549-13.882a2.611 2.611 0 0 1-.086.143c-.508.797-3.349 4.68-10.928 5.495-1.935.208-3.47-.257-7.524 1.565-.269.121-.536.246-.8.375a7.42 7.42 0 0 1-2.65.691c-2.916.224-5.833-1.14-5.37-3.797a4.961 4.961 0 0 1 .919-2.075c1.58-2.06 4.556-2.268 6.467-1.119.092.056.182.115.27.177a1.359 1.359 0 0 0-.033-.126c-.151-.514-.933-2.483-4.287-3.9a14.026 14.026 0 0 0-.712-.278 3.747 3.747 0 0 0-.117-.052c-.976-.412-7.918-3.055-16.001 1.454a23.779 23.779 0 0 0-2.195 1.387c-.088.008-1.366.068-.722-3.092.13-.611.324-1.206.583-1.774 1.27-2.838 4.19-5.876 8.389-7.926a33.929 33.929 0 0 1 3.45-1.441c4.02-1.435 8.634-2.318 11.891-1.857a8.46 8.46 0 0 1 1.45.328s-3.94-4.85-11.699-5.213c-.292-.014-.585-.02-.878-.02-6.644 0-12.436 3.46-14.13 4.498a22.1 22.1 0 0 1-.411.25 4.909 4.909 0 0 1-.25.13c-1.596.785-8.644 3.685-10.458.112-1.264-2.487-.316-4.511 1.47-5.922a10.57 10.57 0 0 1 3.38-1.716c3.515-1.09 7.637-4.062 6.304-6.547a.735.735 0 0 1-.057.12c-.313.557-2.162 2.814-11.165 1.47l-.478-.075c-8.784-1.397-22.211.246-31.182 5.911a23.763 23.763 0 0 0-5.07 4.213 4.603 4.603 0 0 0-.073-.164c-.509-1.099-3.708-7.3-10.838-6.747.029.033.056.067.084.101.66.826 4.824 6.662-1.986 14.875-.389.468-.793.922-1.212 1.362 6.431-2.643 12.422-2.64 18.987-2.638h.635a44.603 44.603 0 0 1 21.609 5.333 39.876 39.876 0 0 1 15.965 16.127c3.204 5.937 5.386 17.247 3.737 25.706a21.57 21.57 0 0 1-.937 3.393c2.425-1.94 8.332-3.426 10.346-3.395 0 0 5.777-12.148 23.822-11.479.163.006.325.013.487.021 0 0-.692-1.04-2.304-2.554l-.12-.113a3.779 3.779 0 0 1-1.134-2.101c-.287-1.608.408-3.578 2.849-5.132l.164-.102z" fill="none"/><path d="M100.365 29.028a14.11 14.11 0 0 0-.231.075c-2.97 1.067-2.077 1.245-1.939 1.265l.017.002c.405-.13.814-.25 1.225-.36 8.02-2.12 13.685 1.02 16.765 2.978a141.878 141.878 0 0 1 1.034.669c2.337 1.571 6.842 6.427 13.488 8.467 1.88.582 3.833.89 5.8.916.811.009 1.621.045 2.43.11 6.816.552 9.334 2.998 10.337 4.287a12.82 12.82 0 0 1 .475.66c.563.852.522 1.422 1.112 1.542.087.017.175.025.264.024a.703.703 0 0 0 .154-.016c.687-.154.504-1.357.484-1.475a16.48 16.48 0 0 0-.614-2.882c-1.312-4.273-4.001-7.045-4.622-7.644a5.268 5.268 0 0 0-.13-.123c-5.242-6.3-16.648-9.73-18.441-10.238l-.24-.067a38.433 38.433 0 0 0-1.823-.348c-11.91-1.979-23.82 1.606-25.545 2.158z" fill="none"/><path d="M82.458 50.593c.292.113.593.2.9.262 3.174.626 5.618.161 7.793-1.593.092-.074.182-.15.27-.226.297-.26.604-.506.92-.74 1.736-1.274 3.02-1.363 4.564.517l.033.04c1.819 2.244 7.093 4.426 10.973 2.002l.063-.03c.294-.134 1.574-.751 3.271-1.971 1.94-1.394 2.91-2.183 4.728-.364 1.789 1.789 6.615 5.338 11.034 5.338.074 0 .147-.001.22-.003.406-.016.81-.06 1.21-.13 3.173-.529 8.206-2.48 10.298-2.782a3.34 3.34 0 0 1 .465-.04c6.643 0 14.032 7.197 19.142-2.147l.127-.236s.336.726.28 1.851a5.164 5.164 0 0 1-.02.266c-.11 1.08-1.425 4.662-5.555 5.061a7.98 7.98 0 0 1-.768.036c-.28-.006-.56-.04-.833-.104-1.78-.381-4.495-1.685-6.904-1.824a7.075 7.075 0 0 0-.408-.012c-.69.006-1.379.038-2.066.098-4.474.362-11.282 1.61-15.815 1.714-.195.005-.39.007-.586.007a20 20 0 0 1-2.152-.137c-3.066-.336-6.755-1.143-10.419-.742-.206.022-.412.042-.619.06-3.37.289-4.34-.34-5.31-.76a4.935 4.935 0 0 0-1.354-.385c-.992-.136-2.334-.027-4.72.494-2.5.545-4.38 1.511-6 1.511a3.182 3.182 0 0 1-1.547-.375 4.64 4.64 0 0 0-1.668-.49c-2.155-.253-4.767.53-6.299.737-.072.01-.144.019-.217.026-2.604.27-7.247-2.476-6.875-8.557l.016-.233s1.168 2.834 3.828 3.861zM172.63 12.63a35.676 35.676 0 0 0-9.944 5.067c-11.597 8.641-16.098 2.866-17.094 1.23a6.696 6.696 0 0 1-.549-1.136c-.793-2.127-.642-4.857.701-7.137a8.354 8.354 0 0 1 2.21-2.46c.213-.159.431-.31.655-.452 3.735-2.386 7.824-1.77 8.666-1.412a13.76 13.76 0 0 0-.353.13c-8.495 3.275-7.109 12.6 3.713 8.363.634-.25 1.257-.524 1.869-.824.878-.43 7.73-5.062 15.488-4.699l.234.013c4.115.242 7.124 1.744 9.028 3.072.016.133-.31.065-1.125-.3l-.256-.118c-3.106-1.445-8.174-1.006-13.242.663zM189.193 37.466c-.299.154-.593.318-.88.492-4.166 2.517-11.49-1.013-7.022-5.716.139-.145.282-.286.43-.422-.373-.04-.748-.061-1.122-.062-6.87-.012-11.082 6.888-6.772 11.527.405.441.861.832 1.359 1.165 5.09 3.368 11.572-2.387 13.742-3.657a4.94 4.94 0 0 1 .082-.046c2.273-1.273 2.546-1.91 6.001-2.819.302-.081.601-.175.895-.281 1.45-.517 3.205-1.395 4.425-2.129-2.204.855-3.148.928-4.722.91h-.052c-1.705-.022-3.54-.404-6.364 1.038z" fill="none"/><path d="M35.581 19.728a3.45 3.45 0 0 0 .006-.088c.164 3.888 2.554 4.61 3.015 4.713l.076.016c-2.485.485-2.97 4.425-2.97 4.425a7.157 7.157 0 0 0-.026-.29c-.356-3.296-2.822-3.763-3.308-3.824a1.416 1.416 0 0 0-.083-.008c.38-.035.747-.148 1.08-.331 1.87-1.034 2.17-4.06 2.21-4.613zM41.29 5.838a13.878 13.878 0 0 0-.005.13c-.228 6.902 5.012 7.795 5.012 7.795-5.198.289-4.98 7.707-4.964 8.111v.017l.002-.045c.157-7.473-5.283-8.207-5.283-8.207l.109.001c4.485 0 5.066-6.748 5.13-7.802z" fill="#fa0" fill-rule="evenodd"/><g><path d="M45.623 21.816h2.843v4.812h5.522v-4.812h2.843v12.903h-2.843v-5.577h-5.522v5.577h-2.843V21.816zM58.769 28.27c0-1.032.173-1.968.52-2.806a6.216 6.216 0 0 1 1.448-2.142 6.386 6.386 0 0 1 2.205-1.357c.85-.316 1.78-.474 2.788-.474a8.467 8.467 0 0 1 1.799.185c.336.073.667.17.99.289.85.315 1.585.768 2.205 1.357a6.124 6.124 0 0 1 1.448 2.142c.244.597.402 1.226.47 1.867.034.312.05.626.05.94a7.982 7.982 0 0 1-.164 1.65 6.564 6.564 0 0 1-.356 1.156 6.134 6.134 0 0 1-1.448 2.14 6.371 6.371 0 0 1-2.205 1.359 7.63 7.63 0 0 1-2.047.444c-.247.02-.494.03-.742.03a8.456 8.456 0 0 1-1.798-.185 7.256 7.256 0 0 1-.99-.29 6.446 6.446 0 0 1-2.205-1.357 6.101 6.101 0 0 1-1.448-2.14c-.347-.839-.52-1.775-.52-2.807zm2.952 0c-.001.346.032.69.1 1.028.044.218.105.432.182.64.189.504.459.941.812 1.312.357.374.788.669 1.266.865.359.149.737.244 1.124.283a4.946 4.946 0 0 0 1.496-.07 3.816 3.816 0 0 0 1.945-1.078c.357-.378.633-.824.812-1.312.136-.372.223-.76.258-1.154.016-.17.024-.342.024-.513a4.968 4.968 0 0 0-.134-1.168c-.04-.166-.09-.33-.148-.49a3.866 3.866 0 0 0-.812-1.322 3.71 3.71 0 0 0-1.266-.866 4.236 4.236 0 0 0-1.65-.31 4.622 4.622 0 0 0-.97.098c-.232.05-.46.12-.68.212a3.71 3.71 0 0 0-1.265.866 3.772 3.772 0 0 0-.812 1.321 4.756 4.756 0 0 0-.282 1.659zM77.116 24.33h-3.681v-2.514H83.64v2.515h-3.68v10.388h-2.844V24.331z" fill="#fff" fill-rule="evenodd"/></g><path d="M93.393 43.15a2.334 2.334 0 1 0 0-4.667 2.334 2.334 0 0 0 0 4.668zM96.33 36.645a3.365 3.365 0 1 1 6.729 0 3.365 3.365 0 0 1-6.729 0zM92.627 36.615a1.273 1.273 0 1 0 0-2.546 1.273 1.273 0 0 0 0 2.546zM150.487 43.024a3.217 3.217 0 0 0-.075-.187 33.117 33.117 0 0 0-.765-1.546c-1.587-2.983-4.754-7.49-11.966-10.457a13.255 13.255 0 0 0-.103-.048c-.806-.377-6.204-2.844-11.602-3.856a27.048 27.048 0 0 0-2.25-.327c-.71-.05-9.858-.687-7.225.18l.015.004.117.024c.435.089 2.054.438 4.504 1.171.665.2 1.327.407 1.987.624 3.233 1.062 6.811 2.853 9.237 5.221a11.602 11.602 0 0 1 1.614 1.933 9.228 9.228 0 0 0 4.752 3.373c1.648.618 3.402 1.046 4.934 1.611.147.054.293.11.438.168l.68.273c.985.4 1.91.8 2.744 1.299.695.405 1.327.91 1.875 1.498.621.644 1.562.34 1.089-.958z" fill="#e2aa48" fill-rule="evenodd"/><path d="M137.276 36.607a1.122 1.122 0 1 0-.001-2.244 1.122 1.122 0 0 0 0 2.244zM142.127 42.006a2.577 2.577 0 1 0-.003-5.153 2.577 2.577 0 0 0 .003 5.153z" fill="none"/><g><path d="M128.553 68.211l-18.247-.597c.466.14.93.288 1.39.446 8.25 2.83 8.27 6.327 8.27 6.327a36.346 36.346 0 0 1 2.525-2.247c2.879-2.33 5.218-3.475 6.062-3.929zM96.265 67.168l-14.482-.496a.65.65 0 0 0-.147.033c-.399.143-.399.634-.399.634-.018.21-.034.504-.05.85l-.014.331c.473.006.944.05 1.41.132 4.126.738 4.712 4.313 4.753 4.608l.003.02c3.155-3.329 7.996-2.746 8.504-2.674a2.4 2.4 0 0 1 .043.006c-.11-1.317.083-2.595.308-3.257a2.46 2.46 0 0 1 .07-.187zM152.935 69.1l-10.309-.354c.383.305.746.636 1.085.989 2.337 2.43 3.044 5.312 3.07 5.424l.001.004c.7.175 1.897.406 2.2.802a.41.41 0 0 1 .032.047c.14-.15.282-.297.428-.44 1.58-1.568 4.542-3.992 5.054-4.408l.076-.063v-1.03a.86.86 0 0 0-.076-.314c-.325-.702-1.556-.656-1.56-.656z" fill="none"/></g><g><path d="M153.242 61.98a1.23 1.23 0 0 0-1.091-1.182c-.59-.06-3.395-.233-4.157-.13a1.268 1.268 0 0 0-.056.009c-.621.112-6.61 4.947-9.98 2.057a4.354 4.354 0 0 1-.71-.784 3.001 3.001 0 0 0-.254-.202c-.79-.567-2.504-1.402-4.17-1.617-.635-.08-1.272-.14-1.91-.178-1.097-.066-2.043-.07-2.68-.08a132.927 132.927 0 0 1-.014 0c-.991 0-3.695 2.814-8.54 2.814-2.524 0-5.31-.338-7.468-2.496a3.588 3.588 0 0 0-1.608-1.053c-1.458-.512-3.21-.385-3.81.008a.715.715 0 0 0-.098.076 5.55 5.55 0 0 0-.43.449c-2.134 2.508-.237 5.24 1.25 5.961.095.047.193.086.294.118 1.405.054 2.81.107 4.216.159 6.151.227 12.97.46 18.455.672.58-.259 1.175-.482 1.782-.67 3.476-1.064 6.125-.423 8.002.631.244.138.482.285.714.444l.177.006c5.25.201 10.5.366 10.923.383a4.919 4.919 0 0 1 .03 0c.117-.006.738-.066.87-.696.01-.05.016-.101.02-.153.054-.76.26-3.57.245-4.463 0-.028 0-.055-.002-.083zM102.26 58.656h.005a8.774 8.774 0 0 0-2.65 1.582c-1.422 1.233-2.366 2.832-3.004 4.431-.074.184-.144.37-.21.556l-1.4-.054c-4.854-.187-8.734-.322-9.787-.365a10.873 10.873 0 0 1-.28-.013c-.606-.06-.727-.727-.727-.727-.121-1.334.243-5.76.243-5.76.117-.821.804-.79.846-.787h.002c.187-.011.373-.019.56-.024 3.955-.101 11.778.863 13.861 1.076a11.833 11.833 0 0 0 .578.047c.942.049 1.883.039 1.963.038z" fill="#db1d19" fill-rule="evenodd"/></g><path d="M98.354 58.616l-3.904-.545-.101.011c-1.152.126-11.695 1.285-8.2 1.285 4.888 0 6.866 2.569 8.658 3.523 2.144 1.142 4.118-3.094 3.556-4.256a.675.675 0 0 0-.01-.018zM110.458 60.915a6.304 6.304 0 0 0-.279-.303c-1.444-1.47-2.995-1.576-2.995-1.576.114-.028.228-.054.342-.079 2.253-.479 3.383.046 5.29 1.837a6.555 6.555 0 0 0 2.228 1.304c1.738.64 3.477.696 3.477.696-4.706 1.512-7.6-1.374-8.012-1.822a1.977 1.977 0 0 1-.051-.057zM130.412 59.987l-.01.001c-.058.028 1.506.478 2.649 1.583.163.157.315.327.452.507 1.018 1.339 3.148 2.548 5.449 1.902.316-.09.623-.208.916-.356a1.53 1.53 0 0 1-.057-.01c-.298-.057-1.687-.38-2.55-1.566a2.899 2.899 0 0 0-.846-.732c-1.442-.879-4.004-1.366-6.003-1.33z" fill="#af130e" fill-rule="evenodd"/><path d="M80.396 61.91a3.572 3.572 0 0 0-.084.07.055.055 0 0 1-.038-.024c-.316-.436 3.374-6.757 9.21-5.996.34.045.679.112 1.012.2.232.061.464.12.697.177 7.322 1.774 9.12-.45 14.853-.45 1.641.01 3.282.075 4.92.193 5.08.338 10.16.946 13.357.307 4.243-.849 11.975 1.26 14.995.955 1.596-.162 10.763-1.076 16.335-.143a13.78 13.78 0 0 1 1.912.446c.065.02.13.042.195.065.36.125.482.199.518.226l.014.012a5.646 5.646 0 0 1-.298.269c-1.82 1.524-4.463 1.807-6.127 1.004-.73-.353-1.955-.622-3.31-.622a5.7 5.7 0 0 0-1.051.099c-1.936.362-3.559 1.645-5.237 2.607a7.035 7.035 0 0 1-3.496 1.129 6.22 6.22 0 0 1-1.485-.177c-2.582-.63-4.199-2.773-6.653-3.609a6.242 6.242 0 0 0-2.038-.337c-6.139 0-6.32 3.335-11.89 3.335-2.068 0-4.187-.907-6.417-1.757a17.508 17.508 0 0 0-6.2-1.456c-.49.003-.977.072-1.449.206-2.598.722-4.67 3.09-5.83 3.09a2.615 2.615 0 0 1-1.23-.319c-1.183-.6-2.365-1.864-6.024-2.136a20.03 20.03 0 0 0-1.815-.048c-3.918.117-6.824 2.272-7.346 2.685z" fill="none"/><path d="M95.852 48.753l.049.078c.287.45 1.875 2.69 5.226 3.058a1.609 1.609 0 0 1-.025.005c-.338.059-4.011.636-6.145-1.8a5.015 5.015 0 0 1-.067-.077c-.088-.1-.887-1.029-.629-1.674.273-.682 1.046-.273 1.591.41zM120.798 52.727l.062.026c-7.411-1.683-7.639-3.046-7.547-3.865.08-.733 1.073-.955 2.357.278.162.157.316.322.462.495.083.098.17.193.26.286 1.446 1.487 3.98 2.6 4.406 2.78zM147.414 53.22c-.02-.007-.04-.014-.062-.02-.605-.194-5.505-1.74-7.186-1.74l-.087.001c-.129.004-.258.014-.386.03-1.272.155-1.105.811.503.936a6.224 6.224 0 0 0 .093.006c1.697.112 5.528.277 6.855.683.093.027.183.062.27.104zM145.465 58.805l-.035.02c-.237.128-1.608.88-2.451 1.453l-.018.012a39.2 39.2 0 0 1-.323.219c-1.063.711-2.705 1.716-3.416 1.388-.789-.364.12-1.03 1.333-1.394 1.162-.35 4.384-1.477 4.864-1.677a.819.819 0 0 0 .046-.021zM125.531 58.134l-.044.015c-.301.105-2.065.727-3.118 1.305a5.797 5.797 0 0 0-.232.134c-.08.049-.162.096-.245.14-1.149.617-3.357 1.355-4.142 1.272a.79.79 0 0 1-.289-.089c-.446-.245-.19-.836.91-1.091.082-.02.166-.036.25-.05.195-.033.39-.07.585-.112 1.275-.271 2.55-.717 3.233-.98.788-.302 2.422-.665 3.09-.545h.002zM98.76 60.192c-.152.11-.298.228-.438.353-1.205 1.084-1.392.313-1.394.065v-.004c0-.227 1.69-1.14 4.528-2 .207-.063.416-.124.625-.183 0 0-2.023.819-3.32 1.77z" fill="#b2dd14" fill-rule="evenodd"/></g></svg>