<svg width="108.68" height="110.02" xmlns="http://www.w3.org/2000/svg"><g><path d="M97.816 91.63l-.148-1.689c-1.08-12.176-11.251-21.529-23.475-21.586-.074 0-.147.004-.221.009a4.551 4.551 0 0 1-.192.008 28.396 28.396 0 0 0-19.436-7.262 28.907 28.907 0 0 0-19.2 7.294 5.694 5.694 0 0 1-.318-.023 4.397 4.397 0 0 0-.407-.026c-12.248.07-22.424 9.465-23.47 21.67l-.077 2.037 1.811.067v1.585h83.322V91.79l1.811-.16z" fill="#fcac2b" fill-rule="evenodd"/><g><path d="M10.948 90.034l-.076 2.038 3.623.134.068-1.954c.913-10.3 9.516-18.213 19.856-18.264a19.8 19.8 0 0 1 6.418 1.109 21.852 21.852 0 0 0-2.989 2.898 16.299 16.299 0 0 0-3.502-.383 16.24 16.24 0 0 0-16.113 14.382l-.112 1.812 3.623.224.101-1.697a12.682 12.682 0 0 1 14.154-11.01 12.678 12.678 0 0 1 11.01 11.01l.106-.014.107 1.711 3.622-.224-.123-1.705v-.05A3.622 3.622 0 1 1 57.967 90l-.21 1.688 3.593.45.227-1.812a1.875 1.875 0 0 0 .012-.225 7.245 7.245 0 0 0-7.251-7.245 7.17 7.17 0 0 0-5.151 2.184 16.32 16.32 0 0 0-1.933-3.166 10.757 10.757 0 0 1 7.09-2.64c6 .005 10.862 4.867 10.868 10.867h.154l-.04 1.422 3.623.1.034-1.254a5.435 5.435 0 0 1 10.46.127l.305 1.359 3.536-.79-.317-1.415a9.03 9.03 0 0 0-8.74-6.797 9.039 9.039 0 0 0-6.215 2.478 14.434 14.434 0 0 0-1.668-3.344 12.594 12.594 0 0 1 5.763-2.575 12.652 12.652 0 0 1 14.66 10.87l.181 1.812 3.623-.362-.192-1.852A16.317 16.317 0 0 0 79.473 76.51a22.885 22.885 0 0 0-2.34-4.275A20.04 20.04 0 0 1 94.06 90.266l.15 1.697 3.606-.322-.156-1.69c-1.079-12.174-11.246-21.526-23.467-21.586-.074 0-.147.004-.221.009a4.551 4.551 0 0 1-.192.008 28.396 28.396 0 0 0-19.436-7.262 28.907 28.907 0 0 0-19.2 7.294 5.694 5.694 0 0 1-.318-.023 4.397 4.397 0 0 0-.407-.026c-12.248.07-22.424 9.465-23.47 21.67zM74.193 75.61c-1.137.002-2.27.124-3.38.363a21.596 21.596 0 0 0-26.25-5.253 23.498 23.498 0 0 0-4.373-1.614 25.251 25.251 0 0 1 14.154-4.363c4.07-.03 8.091.888 11.745 2.68a21.054 21.054 0 0 1 8.915 8.226l-.224-.014a9.239 9.239 0 0 0-.587-.025zm-19.849 0h-.03a14.356 14.356 0 0 0-9.604 3.687 16.374 16.374 0 0 0-3.125-2.024c6.725-6.736 17.456-7.036 24.536-.889a18.272 18.272 0 0 1 .953.89 16.408 16.408 0 0 0-3.132 1.992 14.411 14.411 0 0 0-9.598-3.656z" fill="#fa962a" fill-rule="evenodd"/><path d="M25.634 89.703l-.453 2.037 3.536.79.44-1.981a5.436 5.436 0 0 1 6.611-3.917 5.435 5.435 0 0 1 3.933 3.978l.569 1.926 3.472-1.027-.543-1.863a9.057 9.057 0 0 0-8.78-6.794 9.065 9.065 0 0 0-8.785 6.85z" fill="#fa962a" fill-rule="evenodd"/></g><path d="M1.816 90.099h105.058a18.113 18.113 0 0 1-18.114 18.114H19.93A18.113 18.113 0 0 1 1.815 90.099z" fill="#e5e5e5" fill-rule="evenodd"/><path d="M43.257 108.213h45.494a18.113 18.113 0 0 0 18.113-18.114H77.997c-9.781 9.104-22.642 14.688-34.74 18.114z" fill="#dedede" fill-rule="evenodd"/><path d="M27.208 22.674l3.536.797a29.166 29.166 0 0 1-1.876 5.948 11.01 11.01 0 0 0 0 10.881 14.634 14.634 0 0 1 0 14.477 10.975 10.975 0 0 0-.375 10.165l-3.27 1.554a14.581 14.581 0 0 1-1.425-6.29c0-2.539.662-5.034 1.921-7.24a11.004 11.004 0 0 0 0-10.882 14.651 14.651 0 0 1 0-14.476 26.841 26.841 0 0 0 1.49-4.934z" fill="#fa962a" fill-rule="evenodd"/><g><path d="M98.85 7.011L45.294 8.587l-3.31-3.311a7.249 7.249 0 0 0-5.125-2.123H20.06a12.764 12.764 0 0 0-1.63 5.434h14.183v3.623H18.695c.268 1.27.728 2.492 1.366 3.622h12.553v3.623h-11.18a12.906 12.906 0 0 1 0 5.434h15.428a7.249 7.249 0 0 0 5.124-2.123l3.308-3.311 53.329 3.137a7.799 7.799 0 0 0 8.292-7.273 7.799 7.799 0 0 0-8.064-8.303v-.005zM7.25 8.59h3.623v3.623H7.25V8.59zM7.25 15.83h5.434v3.623H7.25V15.83zM7.25 23.08h7.245v3.623H7.25V23.08zM7.25 1.34h5.307v3.623H7.25V1.34z" fill="#e5e5e5" fill-rule="evenodd"/></g><g><path d="M10.975 2.25L11.66.964a1.807 1.807 0 0 1 2.449-.752c.44.233.763.637.895 1.116.12.43.081.906-.145 1.333l-.712 1.344a11.027 11.027 0 0 0-.024 10.924 14.651 14.651 0 0 1 0 14.476 10.878 10.878 0 0 0 0 10.883 14.65 14.65 0 0 1 0 14.476 11.004 11.004 0 0 0 0 10.882 19.05 19.05 0 0 1 1.231 3.088c.075.226.15.462.232.708.05.15.101.298.155.446l-3.413 1.24a26.215 26.215 0 0 1-.226-.655 95.715 95.715 0 0 1-.203-.623c-.25-.851-.573-1.68-.966-2.476a14.592 14.592 0 0 1 .058-14.43 10.826 10.826 0 0 0-.018-10.852 14.634 14.634 0 0 1 0-14.477 10.816 10.816 0 0 0 .015-10.857 14.632 14.632 0 0 1-.013-14.508z" fill="#fcac2b" fill-rule="evenodd"/><path d="M18.361 2.24l.395-.745a1.81 1.81 0 1 1 3.2 1.7l-.435.814a11.741 11.741 0 0 0 .128 10.983 14.61 14.61 0 0 1-.029 14.425 10.878 10.878 0 0 0 0 10.883 14.626 14.626 0 0 1 0 14.476 11.018 11.018 0 0 0 0 10.882c.332.576.621 1.174.868 1.79l-3.36 1.348a11.252 11.252 0 0 0-.652-1.346 14.636 14.636 0 0 1 0-14.478 10.885 10.885 0 0 0 0-10.883 14.634 14.634 0 0 1 0-14.476 11.004 11.004 0 0 0 0-10.882A15.389 15.389 0 0 1 18.36 2.24z" fill="#fcac2b" fill-rule="evenodd"/></g><path d="M65.032 20.616l33.586 1.977a7.792 7.792 0 0 0 8.289-7.778 7.788 7.788 0 0 0-6.275-7.635 202.156 202.156 0 0 1-35.6 13.437z" fill="#dedede" fill-rule="evenodd"/><path d="M106.866 88.29h-9.431c-1.837-11.432-11.67-19.86-23.249-19.925-.074 0-.147.004-.22.008a4.551 4.551 0 0 1-.193.009 28.396 28.396 0 0 0-19.436-7.262 28.908 28.908 0 0 0-19.2 7.294 5.694 5.694 0 0 1-.318-.023 4.397 4.397 0 0 0-.407-.026c-11.578.065-21.411 8.494-23.246 19.925H1.808c-1 0-1.811.811-1.811 1.811.013 11 8.926 19.912 19.925 19.925h68.83c11-.013 19.913-8.926 19.926-19.925a1.811 1.811 0 0 0-1.812-1.811zm-18.113 18.113H19.922c-8.3-.01-15.27-6.243-16.203-14.49h101.236c-.934 8.245-7.904 14.48-16.202 14.49zm-22.67-38.98a26.233 26.233 0 0 0-11.746-2.68 25.25 25.25 0 0 0-14.154 4.363c1.507.391 2.973.933 4.373 1.614a21.596 21.596 0 0 1 26.25 5.253 16.18 16.18 0 0 1 3.38-.363c.164.002.327.008.49.02l.321.019a21.054 21.054 0 0 0-8.915-8.226zM18.52 88.29h-3.697a20.049 20.049 0 0 1 19.59-16.302 19.8 19.8 0 0 1 6.417 1.108 21.848 21.848 0 0 0-2.989 2.899 16.284 16.284 0 0 0-3.502-.383A16.237 16.237 0 0 0 18.52 88.29zm7.597 0h-3.84a12.675 12.675 0 0 1 12.13-9.038 12.604 12.604 0 0 1 3.64.536 12.67 12.67 0 0 1 8.502 8.502h-3.84a9.039 9.039 0 0 0-5.742-5.056 9.02 9.02 0 0 0-6.188.394 9.055 9.055 0 0 0-4.662 4.662zm40.95-11.015a18.116 18.116 0 0 0-12.744-5.287 18.03 18.03 0 0 0-12.745 5.278 16.377 16.377 0 0 1 3.125 2.023 14.399 14.399 0 0 1 11.239-3.596 14.37 14.37 0 0 1 7.993 3.575 16.41 16.41 0 0 1 3.132-1.993zm26.71 11.015H90.08a16.329 16.329 0 0 0-10.623-11.786 22.886 22.886 0 0 0-2.34-4.275 20.068 20.068 0 0 1 16.66 16.061zm-7.446.002h-3.847v-.002a8.996 8.996 0 0 0-5.721-5.066 8.978 8.978 0 0 0-6.136.375 9.002 9.002 0 0 0-2.623 1.733 14.432 14.432 0 0 0-1.668-3.344 12.635 12.635 0 0 1 19.995 6.304zm-21.289-.002h-3.717a7.216 7.216 0 0 0-8.768-5.211 7.227 7.227 0 0 0-3.382 1.95 16.2 16.2 0 0 0-1.927-3.155 10.757 10.757 0 0 1 7.09-2.64 10.878 10.878 0 0 1 10.704 9.056zm13.19 0h-8.089a5.4 5.4 0 0 1 2.868-1.683 5.414 5.414 0 0 1 5.221 1.683zm-39.775 0h-8.09a5.4 5.4 0 0 1 2.869-1.683 5.412 5.412 0 0 1 5.221 1.683zm19 0h-6.24a3.592 3.592 0 0 1 6.24 0zM12.358 23.08H7.243v3.622h4.179l-.042.093a8.9 8.9 0 0 1-.402.813 14.623 14.623 0 0 0-1.915 7.238c-.001 2.538.66 5.033 1.915 7.238a11.018 11.018 0 0 1 0 10.883 14.593 14.593 0 0 0-.042 14.4c.393.796.716 1.624.966 2.476.132.408.266.826.43 1.277l3.408-1.226a23.2 23.2 0 0 1-.205-.596 72.221 72.221 0 0 1-.184-.567 18.927 18.927 0 0 0-1.225-3.084 11.004 11.004 0 0 1 0-10.883 14.642 14.642 0 0 0 0-14.476 11.004 11.004 0 0 1 0-10.883 14.634 14.634 0 0 0 0-14.476 11.004 11.004 0 0 1 0-10.868 1.813 1.813 0 0 0-1.576-2.717H7.244v3.622h2.536a14.57 14.57 0 0 0-.667 3.623H7.243v3.623h2.083c.24 1.255.643 2.473 1.199 3.622H7.243v3.623h4.829c.295 1.183.391 2.407.286 3.623z" fill-rule="evenodd"/><path d="M98.789 5.204l-52.78 1.552-2.758-2.76a8.986 8.986 0 0 0-6.403-2.652H19.925c-.904 0-1.67.666-1.795 1.561a14.649 14.649 0 0 0 .346 13.835 11.004 11.004 0 0 1 0 10.883 14.634 14.634 0 0 0 0 14.476 11.01 11.01 0 0 1 0 10.883 14.628 14.628 0 0 0 0 14.478c.246.433.465.883.652 1.345l3.358-1.355a14.04 14.04 0 0 0-.868-1.79 11.012 11.012 0 0 1 0-10.882 14.623 14.623 0 0 0 1.916-7.238c0-2.538-.66-5.032-1.916-7.238a11.012 11.012 0 0 1 0-10.882c.493-.863.897-1.774 1.205-2.717h3.334l-.085.19-.01.025c-.1.236-.213.467-.34.69a14.642 14.642 0 0 0 0 14.476 11.004 11.004 0 0 1 0 10.883 14.598 14.598 0 0 0-.5 13.522l3.27-1.56a10.961 10.961 0 0 1 .376-10.165 14.623 14.623 0 0 0 1.915-7.238c0-2.538-.66-5.033-1.915-7.238a11.01 11.01 0 0 1 0-10.881c.478-.864.868-1.775 1.164-2.717h6.814a8.987 8.987 0 0 0 6.404-2.652l2.738-2.739 52.518 3.103a9.608 9.608 0 0 0 10.127-9.06c.296-5.298-3.762-9.834-9.06-10.127a9.357 9.357 0 0 0-.784-.011zm-.07 15.583L45.39 17.646a1.82 1.82 0 0 0-1.387.527l-3.313 3.313a5.477 5.477 0 0 1-3.842 1.594H23.51a14.617 14.617 0 0 0-.255-3.623h9.348v-3.623h-10.55c-.068-.138-.129-.279-.192-.42a5.96 5.96 0 0 0-.238-.485 10.81 10.81 0 0 1-1.087-2.717h12.067V8.589H20.231c.1-1.252.414-2.478.929-3.623h15.688c1.44.005 2.82.576 3.842 1.59l3.313 3.314a1.769 1.769 0 0 0 1.333.53L98.9 8.826a5.986 5.986 0 0 1 4.281 10.34 5.944 5.944 0 0 1-4.462 1.622zm4.462-1.622h-.002" fill-rule="evenodd"/></g></svg>